<svg width="146" height="56" viewBox="0 0 146 56" fill="none" xmlns="http://www.w3.org/2000/svg">
<path d="M115.773 44H111.438V15.9688C111.438 14.1406 111.766 12.6016 112.422 11.3516C113.094 10.0859 114.055 9.13281 115.305 8.49219C116.555 7.83594 118.039 7.50781 119.758 7.50781C120.258 7.50781 120.758 7.53906 121.258 7.60156C121.773 7.66406 122.273 7.75781 122.758 7.88281L122.523 11.4219C122.195 11.3438 121.82 11.2891 121.398 11.2578C120.992 11.2266 120.586 11.2109 120.18 11.2109C119.258 11.2109 118.461 11.3984 117.789 11.7734C117.133 12.1328 116.633 12.6641 116.289 13.3672C115.945 14.0703 115.773 14.9375 115.773 15.9688V44ZM121.164 18.6406V21.9688H107.43V18.6406H121.164ZM133.117 41.375L140.172 18.6406H144.812L134.641 47.9141C134.406 48.5391 134.094 49.2109 133.703 49.9297C133.328 50.6641 132.844 51.3594 132.25 52.0156C131.656 52.6719 130.938 53.2031 130.094 53.6094C129.266 54.0312 128.273 54.2422 127.117 54.2422C126.773 54.2422 126.336 54.1953 125.805 54.1016C125.273 54.0078 124.898 53.9297 124.68 53.8672L124.656 50.3516C124.781 50.3672 124.977 50.3828 125.242 50.3984C125.523 50.4297 125.719 50.4453 125.828 50.4453C126.812 50.4453 127.648 50.3125 128.336 50.0469C129.023 49.7969 129.602 49.3672 130.07 48.7578C130.555 48.1641 130.969 47.3438 131.312 46.2969L133.117 41.375ZM127.938 18.6406L134.523 38.3281L135.648 42.8984L132.531 44.4922L123.203 18.6406H127.938Z" fill="white"/>
<rect y="3" width="104" height="50" rx="4" fill="white"/>
<path d="M28.5625 33.1484H33.0625C32.8281 35.3047 32.2109 37.2344 31.2109 38.9375C30.2109 40.6406 28.7969 41.9922 26.9688 42.9922C25.1406 43.9766 22.8594 44.4688 20.125 44.4688C18.125 44.4688 16.3047 44.0938 14.6641 43.3438C13.0391 42.5938 11.6406 41.5312 10.4688 40.1562C9.29688 38.7656 8.39062 37.1016 7.75 35.1641C7.125 33.2109 6.8125 31.0391 6.8125 28.6484V25.25C6.8125 22.8594 7.125 20.6953 7.75 18.7578C8.39062 16.8047 9.30469 15.1328 10.4922 13.7422C11.6953 12.3516 13.1406 11.2812 14.8281 10.5312C16.5156 9.78125 18.4141 9.40625 20.5234 9.40625C23.1016 9.40625 25.2812 9.89063 27.0625 10.8594C28.8438 11.8281 30.2266 13.1719 31.2109 14.8906C32.2109 16.5938 32.8281 18.5703 33.0625 20.8203H28.5625C28.3438 19.2266 27.9375 17.8594 27.3438 16.7188C26.75 15.5625 25.9062 14.6719 24.8125 14.0469C23.7188 13.4219 22.2891 13.1094 20.5234 13.1094C19.0078 13.1094 17.6719 13.3984 16.5156 13.9766C15.375 14.5547 14.4141 15.375 13.6328 16.4375C12.8672 17.5 12.2891 18.7734 11.8984 20.2578C11.5078 21.7422 11.3125 23.3906 11.3125 25.2031V28.6484C11.3125 30.3203 11.4844 31.8906 11.8281 33.3594C12.1875 34.8281 12.7266 36.1172 13.4453 37.2266C14.1641 38.3359 15.0781 39.2109 16.1875 39.8516C17.2969 40.4766 18.6094 40.7891 20.125 40.7891C22.0469 40.7891 23.5781 40.4844 24.7188 39.875C25.8594 39.2656 26.7188 38.3906 27.2969 37.25C27.8906 36.1094 28.3125 34.7422 28.5625 33.1484ZM59.8281 33.1484H64.3281C64.0938 35.3047 63.4766 37.2344 62.4766 38.9375C61.4766 40.6406 60.0625 41.9922 58.2344 42.9922C56.4062 43.9766 54.125 44.4688 51.3906 44.4688C49.3906 44.4688 47.5703 44.0938 45.9297 43.3438C44.3047 42.5938 42.9062 41.5312 41.7344 40.1562C40.5625 38.7656 39.6562 37.1016 39.0156 35.1641C38.3906 33.2109 38.0781 31.0391 38.0781 28.6484V25.25C38.0781 22.8594 38.3906 20.6953 39.0156 18.7578C39.6562 16.8047 40.5703 15.1328 41.7578 13.7422C42.9609 12.3516 44.4062 11.2812 46.0938 10.5312C47.7812 9.78125 49.6797 9.40625 51.7891 9.40625C54.3672 9.40625 56.5469 9.89063 58.3281 10.8594C60.1094 11.8281 61.4922 13.1719 62.4766 14.8906C63.4766 16.5938 64.0938 18.5703 64.3281 20.8203H59.8281C59.6094 19.2266 59.2031 17.8594 58.6094 16.7188C58.0156 15.5625 57.1719 14.6719 56.0781 14.0469C54.9844 13.4219 53.5547 13.1094 51.7891 13.1094C50.2734 13.1094 48.9375 13.3984 47.7812 13.9766C46.6406 14.5547 45.6797 15.375 44.8984 16.4375C44.1328 17.5 43.5547 18.7734 43.1641 20.2578C42.7734 21.7422 42.5781 23.3906 42.5781 25.2031V28.6484C42.5781 30.3203 42.75 31.8906 43.0938 33.3594C43.4531 34.8281 43.9922 36.1172 44.7109 37.2266C45.4297 38.3359 46.3438 39.2109 47.4531 39.8516C48.5625 40.4766 49.875 40.7891 51.3906 40.7891C53.3125 40.7891 54.8438 40.4844 55.9844 39.875C57.125 39.2656 57.9844 38.3906 58.5625 37.25C59.1562 36.1094 59.5781 34.7422 59.8281 33.1484ZM96.7422 9.875V44H92.1953L75.0156 17.6797V44H70.4922V9.875H75.0156L92.2656 36.2656V9.875H96.7422Z" fill="black"/>
</svg>
