<?xml version="1.0" standalone="no"?>
<!DOCTYPE svg PUBLIC "-//W3C//DTD SVG 20010904//EN"
 "http://www.w3.org/TR/2001/REC-SVG-20010904/DTD/svg10.dtd">
<svg version="1.0" xmlns="http://www.w3.org/2000/svg"
 width="142.000000pt" height="56.000000pt" viewBox="0 0 142.000000 56.000000"
 preserveAspectRatio="xMidYMid meet">

<g transform="translate(0.000000,56.000000) scale(0.100000,-0.100000)"
fill="#000000" stroke="none">
<path d="M12 518 c-17 -17 -17 -459 0 -476 17 -17 959 -17 976 0 17 17 17 459
0 476 -17 17 -959 17 -976 0z m209 -58 c42 -12 75 -44 84 -82 6 -24 4 -28 -13
-28 -13 0 -26 11 -34 27 -29 61 -99 68 -140 13 -45 -61 -28 -203 28 -229 48
-22 97 -4 113 40 7 19 17 29 30 29 26 0 26 -16 1 -57 -24 -41 -51 -55 -107
-56 -83 -1 -133 62 -133 171 0 96 31 152 96 172 39 11 34 11 75 0z m367 -35
c36 -39 43 -75 13 -75 -11 0 -23 12 -31 30 -24 58 -84 67 -131 21 -27 -28 -29
-34 -29 -111 0 -77 2 -83 29 -111 45 -44 108 -35 131 20 14 36 50 43 50 11 0
-30 -51 -81 -90 -89 -115 -24 -184 64 -167 211 15 126 143 179 225 93z m225
-90 l82 -125 3 125 3 125 24 0 25 0 0 -170 0 -170 -24 0 c-19 0 -39 24 -110
131 l-86 131 0 -131 0 -131 -25 0 -25 0 0 170 0 170 25 0 c22 0 38 -20 108
-125z"/>
<path d="M1135 483 c-33 -8 -55 -34 -61 -75 -5 -28 -11 -38 -25 -38 -11 0 -19
-7 -19 -15 0 -8 9 -15 20 -15 19 0 20 -7 20 -110 l0 -110 25 0 25 0 0 110 0
110 25 0 c16 0 25 6 25 15 0 9 -10 15 -26 15 -23 0 -25 3 -22 33 2 26 9 34 36
42 34 10 42 29 16 39 -9 3 -16 5 -17 5 -1 -1 -11 -4 -22 -6z"/>
<path d="M1238 244 c43 -118 45 -128 31 -153 -8 -14 -25 -27 -37 -29 -29 -4
-31 -42 -1 -42 51 0 62 19 137 238 l39 112 -23 0 c-21 0 -27 -11 -52 -92 l-29
-93 -30 90 c-26 80 -32 90 -55 93 l-26 3 46 -127z"/>
</g>
</svg>
